#!OML:ASF F:\VICON\USERDATA\INSTALL\rory3\rory3.ASF
:FULLY-SPECIFIED
:DEGREES
37
root 0.08779124102673519 18.012655077920858 10.057193012963467 -2.0425292792613714 -3.870589956938014 -6.666592423424479
lfemur -30.537121409564612 2.433925391038891 -9.887768290112875
ltibia 43.41995316173975
lfoot -3.4039060762359137 -5.174614343265375
ltoes -2.0714715937408235
rfemur 2.103385072384773 5.184005584610355 34.68953543393576
rtibia 33.81998677517314
rfoot -12.436697009783433 -4.432220805160453
rtoes 1.3916005662910378
lowerback 9.776817321538804 1.8387989796944828 6.492126946126636
upperback 0.0889762764889319 2.960565140578016 1.8573132604866902
thorax -5.23980178963859 1.270090688264225 -1.921926953664254
lowerneck -16.32855555179074 -2.7716941143761287 -2.4234192919301814
upperneck 21.93076372410819 -3.5002882902036427 -0.04559631837342759
head 9.61772261764691 -1.8255016040423264 -0.067551371201578
lclavicle -4.536371583563828e-16 -7.766929728127522e-16
lhumerus -36.41538944212216 7.757273506248854 80.41500359265503
lradius 20.769777867947138
lwrist 3.8980644626152205
lhand -28.030086393734273 20.99893874665458
lfingers 7.12502
lthumb -1.3342517674421026 51.353929671500886
rclavicle -4.535499498757601e-16 -7.766255694501717e-16
rhumerus -21.06234173787452 -7.918077613902746 -83.06280621265302
rradius 29.954390597716174
rwrist 1.8749731333828499
rhand -18.125766169541258 22.58266375472361
rfingers 7.12502
rthumb 8.037058405484096 -7.380851207999463
38
root 0.1331100064282811 17.98564833469889 10.947971482186254 -1.4195847370511807 -4.13983977464509 -6.743080365064327
lfemur -29.85532718707416 -1.4884142468915096 -8.224784899076635
ltibia 31.21912324891167
lfoot -3.611334009521303 -3.6020455914202443
ltoes -2.5184221724211335
rfemur 4.875156618215236 5.4756046951429145 35.13041095903712
rtibia 32.5862062023106
rfoot -11.743192123071452 -4.534548075058117
rtoes 1.6671624911776652
lowerback 9.45251239000661 1.9801721869191387 6.82709199036602
upperback 0.03843564367175972 3.2417634853864703 1.8538086627516437
thorax -5.189398255216019 1.3907298488624869 -2.1011550687385387
lowerneck -16.421328409293945 -2.7572184439261544 -2.481375548261471
upperneck 21.68629624952006 -3.49531689954662 0.05826915456162385
head 9.586456250507618 -1.765870003572124 -0.03436532097962092
lclavicle -4.536371774382898e-16 -7.766929875611423e-16
lhumerus -37.12507730728229 9.58694732141948 79.7390227089584
lradius 19.295331761055568
lwrist 3.0158193828676017
lhand -28.133869606304067 21.180100929182313
lfingers 7.12502
lthumb -1.3233652450761793 51.7293779739834
rclavicle -4.535505014106707e-16 -7.766259957310479e-16
rhumerus -19.611617345084518 -7.177630608730535 -83.26479097733743
rradius 30.71149394100125
rwrist 1.7760307418417391
rhand -18.17471828103262 22.518447142456726
rfingers 7.12502
rthumb 8.028355529831645 -7.30995987939626
39
root 0.17299523939982508 17.94548840018367 11.503164789144485 -0.79757169333465 -4.459378293674733 -6.875875593554095
lfemur -28.03703600612416 -6.735064047807887 -6.309301150336209
ltibia 19.955155012171538
lfoot -3.940440508091792 -3.0187125535474815
ltoes -2.8629442875884603
rfemur 7.955515658220076 5.53674938957741 35.42508486349117
rtibia 32.23875397799806
rfoot -10.721782572090877 -4.105342405406828
rtoes 2.3250651175344426
lowerback 9.11874913294392 2.1268153483200973 7.119004624047509
upperback -0.020476581780711864 3.4071232193535383 1.8622376198937964
thorax -5.1065878373505615 1.4911387439382784 -2.2549319665350476
lowerneck -16.481806531090527 -2.7267740176744164 -2.4833049372483833
upperneck 21.496207641240026 -3.5523089759071165 0.1164563339864314
head 9.537610859613595 -1.7433598967875792 -0.058029120747604246
lclavicle -4.53637400997471e-16 -7.766931603498486e-16
lhumerus -37.732546063883554 11.385171571823085 78.92885573407865
lradius 17.981938552869668
lwrist 2.0054460952023465
lhand -27.931509971262223 21.66170288981407
lfingers 7.12502
lthumb -1.1840458196663035 52.15101211717649
rclavicle -4.535505787946675e-16 -7.766260555410751e-16
rhumerus -18.4764759619704 -6.878540696395669 -83.33336111439
rradius 31.12137298151727
rwrist 1.6447653301448124
rhand -18.177365276806 22.62929612350836
rfingers 7.12502
rthumb 7.996295540441721 -7.186853778340765
40
root 0.2295525282646908 17.8978916716695 12.384352781448754 -0.35936450451176194 -4.723917240748479 -6.767166603764751
lfemur -26.577433521744368 -8.974324472853366 -6.350290458750127
ltibia 13.684209831416148
lfoot -4.460733028375577 -2.540176852212306
ltoes -3.3161846137089785
rfemur 10.305121363924371 5.6351225614611185 34.89394308370633
rtibia 33.83418221356748
rfoot -9.973377267042482 -3.311639881405748
rtoes 3.460192919485264
lowerback 8.875137540679301 2.1948934277940944 6.8837575720760835
upperback -0.05023910568671976 3.5197885034785408 1.8296858234972482
thorax -5.022134356269975 1.5689276670859518 -2.2966272660705664
lowerneck -16.47988324914618 -2.7035117358956264 -2.4873539792546175
upperneck 21.319266400071157 -3.6369010546490195 0.1370082915066569
head 9.508161020006035 -1.717060637361504 -0.015491409822926572
lclavicle -4.536376300946042e-16 -7.766933374188334e-16
lhumerus -38.32904899983315 13.060662988691096 78.02953307713541
lradius 17.2095912747442
lwrist 0.8605777288663221
lhand -28.2234995035932 21.27043174075361
lfingers 7.12502
lthumb -1.452508421431119 51.74702979448911
rclavicle -4.535505783090128e-16 -7.76626055165713e-16
rhumerus -17.797242697511365 -7.204342122910326 -83.37083281076123
rradius 31.23792755437649
rwrist 1.7162646043439143
rhand -18.215522360129413 22.71349829853799
rfingers 7.12502
rthumb 7.927621351101853 -7.160525911979648
